<?xml version="1.0" encoding="UTF-8" standalone="no"?>
<!DOCTYPE svg PUBLIC "-//W3C//DTD SVG 1.1//EN"
 "http://www.w3.org/Graphics/SVG/1.1/DTD/svg11.dtd">
<!-- Generated by graphviz version 2.40.1 (20161225.0304)
 -->
<!-- Title: Tree Pages: 1 -->
<svg width="624pt" height="671pt"
 viewBox="0.00 0.00 624.00 671.00" xmlns="http://www.w3.org/2000/svg" xmlns:xlink="http://www.w3.org/1999/xlink">
<g id="graph0" class="graph" transform="scale(1 1) rotate(0) translate(4 667)">
<title>Tree</title>
<polygon fill="#ffffff" stroke="transparent" points="-4,4 -4,-667 620,-667 620,4 -4,4"/>
<!-- 0 -->
<g id="node1" class="node">
<title>0</title>
<path fill="#f7f3fd" stroke="#000000" d="M322.5,-663C322.5,-663 206.5,-663 206.5,-663 200.5,-663 194.5,-657 194.5,-651 194.5,-651 194.5,-592 194.5,-592 194.5,-586 200.5,-580 206.5,-580 206.5,-580 322.5,-580 322.5,-580 328.5,-580 334.5,-586 334.5,-592 334.5,-592 334.5,-651 334.5,-651 334.5,-657 328.5,-663 322.5,-663"/>
<text text-anchor="start" x="209" y="-647.8" font-family="Helvetica,sans-Serif" font-size="14.00" fill="#000000">petal.length ≤ 2.6</text>
<text text-anchor="start" x="226.5" y="-632.8" font-family="Helvetica,sans-Serif" font-size="14.00" fill="#000000">gini = 0.665</text>
<text text-anchor="start" x="216.5" y="-617.8" font-family="Helvetica,sans-Serif" font-size="14.00" fill="#000000">samples = 120</text>
<text text-anchor="start" x="202.5" y="-602.8" font-family="Helvetica,sans-Serif" font-size="14.00" fill="#000000">value = [39, 37, 44]</text>
<text text-anchor="start" x="237" y="-587.8" font-family="Helvetica,sans-Serif" font-size="14.00" fill="#000000">class = r</text>
</g>
<!-- 1 -->
<g id="node2" class="node">
<title>1</title>
<path fill="#e58139" stroke="#000000" d="M242,-536.5C242,-536.5 143,-536.5 143,-536.5 137,-536.5 131,-530.5 131,-524.5 131,-524.5 131,-480.5 131,-480.5 131,-474.5 137,-468.5 143,-468.5 143,-468.5 242,-468.5 242,-468.5 248,-468.5 254,-474.5 254,-480.5 254,-480.5 254,-524.5 254,-524.5 254,-530.5 248,-536.5 242,-536.5"/>
<text text-anchor="start" x="163" y="-521.3" font-family="Helvetica,sans-Serif" font-size="14.00" fill="#000000">gini = 0.0</text>
<text text-anchor="start" x="148.5" y="-506.3" font-family="Helvetica,sans-Serif" font-size="14.00" fill="#000000">samples = 39</text>
<text text-anchor="start" x="139" y="-491.3" font-family="Helvetica,sans-Serif" font-size="14.00" fill="#000000">value = [39, 0, 0]</text>
<text text-anchor="start" x="163.5" y="-476.3" font-family="Helvetica,sans-Serif" font-size="14.00" fill="#000000">class = v</text>
</g>
<!-- 0&#45;&gt;1 -->
<g id="edge1" class="edge">
<title>0&#45;&gt;1</title>
<path fill="none" stroke="#000000" d="M239.3179,-579.8796C232.5983,-568.7735 225.3243,-556.7513 218.5586,-545.5691"/>
<polygon fill="#000000" stroke="#000000" points="221.4332,-543.5589 213.262,-536.8149 215.4441,-547.1826 221.4332,-543.5589"/>
<text text-anchor="middle" x="207.2883" y="-557.3908" font-family="Helvetica,sans-Serif" font-size="14.00" fill="#000000">True</text>
</g>
<!-- 2 -->
<g id="node3" class="node">
<title>2</title>
<path fill="#ebe0fb" stroke="#000000" d="M391,-544C391,-544 284,-544 284,-544 278,-544 272,-538 272,-532 272,-532 272,-473 272,-473 272,-467 278,-461 284,-461 284,-461 391,-461 391,-461 397,-461 403,-467 403,-473 403,-473 403,-532 403,-532 403,-538 397,-544 391,-544"/>
<text text-anchor="start" x="281" y="-528.8" font-family="Helvetica,sans-Serif" font-size="14.00" fill="#000000">petal.width ≤ 1.65</text>
<text text-anchor="start" x="299.5" y="-513.8" font-family="Helvetica,sans-Serif" font-size="14.00" fill="#000000">gini = 0.496</text>
<text text-anchor="start" x="293.5" y="-498.8" font-family="Helvetica,sans-Serif" font-size="14.00" fill="#000000">samples = 81</text>
<text text-anchor="start" x="280" y="-483.8" font-family="Helvetica,sans-Serif" font-size="14.00" fill="#000000">value = [0, 37, 44]</text>
<text text-anchor="start" x="310" y="-468.8" font-family="Helvetica,sans-Serif" font-size="14.00" fill="#000000">class = r</text>
</g>
<!-- 0&#45;&gt;2 -->
<g id="edge2" class="edge">
<title>0&#45;&gt;2</title>
<path fill="none" stroke="#000000" d="M290.0319,-579.8796C295.391,-571.1434 301.0979,-561.8404 306.6282,-552.8253"/>
<polygon fill="#000000" stroke="#000000" points="309.6135,-554.6522 311.8592,-544.2981 303.6467,-550.9919 309.6135,-554.6522"/>
<text text-anchor="middle" x="317.6839" y="-564.9101" font-family="Helvetica,sans-Serif" font-size="14.00" fill="#000000">False</text>
</g>
<!-- 3 -->
<g id="node4" class="node">
<title>3</title>
<path fill="#4fe88f" stroke="#000000" d="M316,-425C316,-425 205,-425 205,-425 199,-425 193,-419 193,-413 193,-413 193,-354 193,-354 193,-348 199,-342 205,-342 205,-342 316,-342 316,-342 322,-342 328,-348 328,-354 328,-354 328,-413 328,-413 328,-419 322,-425 316,-425"/>
<text text-anchor="start" x="201" y="-409.8" font-family="Helvetica,sans-Serif" font-size="14.00" fill="#000000">petal.length ≤ 4.95</text>
<text text-anchor="start" x="227" y="-394.8" font-family="Helvetica,sans-Serif" font-size="14.00" fill="#000000">gini = 0.18</text>
<text text-anchor="start" x="216.5" y="-379.8" font-family="Helvetica,sans-Serif" font-size="14.00" fill="#000000">samples = 40</text>
<text text-anchor="start" x="207" y="-364.8" font-family="Helvetica,sans-Serif" font-size="14.00" fill="#000000">value = [0, 36, 4]</text>
<text text-anchor="start" x="231.5" y="-349.8" font-family="Helvetica,sans-Serif" font-size="14.00" fill="#000000">class = a</text>
</g>
<!-- 2&#45;&gt;3 -->
<g id="edge3" class="edge">
<title>2&#45;&gt;3</title>
<path fill="none" stroke="#000000" d="M310.5691,-460.8796C304.9163,-452.1434 298.8967,-442.8404 293.0634,-433.8253"/>
<polygon fill="#000000" stroke="#000000" points="295.9169,-431.7924 287.5458,-425.2981 290.0399,-435.5952 295.9169,-431.7924"/>
</g>
<!-- 10 -->
<g id="node11" class="node">
<title>10</title>
<path fill="#843ee6" stroke="#000000" d="M469,-425C469,-425 358,-425 358,-425 352,-425 346,-419 346,-413 346,-413 346,-354 346,-354 346,-348 352,-342 358,-342 358,-342 469,-342 469,-342 475,-342 481,-348 481,-354 481,-354 481,-413 481,-413 481,-419 475,-425 469,-425"/>
<text text-anchor="start" x="354" y="-409.8" font-family="Helvetica,sans-Serif" font-size="14.00" fill="#000000">petal.length ≤ 4.85</text>
<text text-anchor="start" x="375.5" y="-394.8" font-family="Helvetica,sans-Serif" font-size="14.00" fill="#000000">gini = 0.048</text>
<text text-anchor="start" x="369.5" y="-379.8" font-family="Helvetica,sans-Serif" font-size="14.00" fill="#000000">samples = 41</text>
<text text-anchor="start" x="360" y="-364.8" font-family="Helvetica,sans-Serif" font-size="14.00" fill="#000000">value = [0, 1, 40]</text>
<text text-anchor="start" x="386" y="-349.8" font-family="Helvetica,sans-Serif" font-size="14.00" fill="#000000">class = r</text>
</g>
<!-- 2&#45;&gt;10 -->
<g id="edge10" class="edge">
<title>2&#45;&gt;10</title>
<path fill="none" stroke="#000000" d="M364.0811,-460.8796C369.6605,-452.1434 375.6019,-442.8404 381.3595,-433.8253"/>
<polygon fill="#000000" stroke="#000000" points="384.3726,-435.6098 386.8054,-425.2981 378.4731,-431.8421 384.3726,-435.6098"/>
</g>
<!-- 4 -->
<g id="node5" class="node">
<title>4</title>
<path fill="#39e581" stroke="#000000" d="M162,-298.5C162,-298.5 63,-298.5 63,-298.5 57,-298.5 51,-292.5 51,-286.5 51,-286.5 51,-242.5 51,-242.5 51,-236.5 57,-230.5 63,-230.5 63,-230.5 162,-230.5 162,-230.5 168,-230.5 174,-236.5 174,-242.5 174,-242.5 174,-286.5 174,-286.5 174,-292.5 168,-298.5 162,-298.5"/>
<text text-anchor="start" x="83" y="-283.3" font-family="Helvetica,sans-Serif" font-size="14.00" fill="#000000">gini = 0.0</text>
<text text-anchor="start" x="68.5" y="-268.3" font-family="Helvetica,sans-Serif" font-size="14.00" fill="#000000">samples = 35</text>
<text text-anchor="start" x="59" y="-253.3" font-family="Helvetica,sans-Serif" font-size="14.00" fill="#000000">value = [0, 35, 0]</text>
<text text-anchor="start" x="83.5" y="-238.3" font-family="Helvetica,sans-Serif" font-size="14.00" fill="#000000">class = a</text>
</g>
<!-- 3&#45;&gt;4 -->
<g id="edge4" class="edge">
<title>3&#45;&gt;4</title>
<path fill="none" stroke="#000000" d="M208.7368,-341.8796C193.9669,-330.0038 177.8941,-317.0804 163.1892,-305.2568"/>
<polygon fill="#000000" stroke="#000000" points="165.1639,-302.3535 155.1774,-298.8149 160.7775,-307.8088 165.1639,-302.3535"/>
</g>
<!-- 5 -->
<g id="node6" class="node">
<title>5</title>
<path fill="#a06aec" stroke="#000000" d="M319,-306C319,-306 204,-306 204,-306 198,-306 192,-300 192,-294 192,-294 192,-235 192,-235 192,-229 198,-223 204,-223 204,-223 319,-223 319,-223 325,-223 331,-229 331,-235 331,-235 331,-294 331,-294 331,-300 325,-306 319,-306"/>
<text text-anchor="start" x="200" y="-290.8" font-family="Helvetica,sans-Serif" font-size="14.00" fill="#000000">sepal.length ≤ 6.05</text>
<text text-anchor="start" x="228" y="-275.8" font-family="Helvetica,sans-Serif" font-size="14.00" fill="#000000">gini = 0.32</text>
<text text-anchor="start" x="222" y="-260.8" font-family="Helvetica,sans-Serif" font-size="14.00" fill="#000000">samples = 5</text>
<text text-anchor="start" x="212" y="-245.8" font-family="Helvetica,sans-Serif" font-size="14.00" fill="#000000">value = [0, 1, 4]</text>
<text text-anchor="start" x="234" y="-230.8" font-family="Helvetica,sans-Serif" font-size="14.00" fill="#000000">class = r</text>
</g>
<!-- 3&#45;&gt;5 -->
<g id="edge5" class="edge">
<title>3&#45;&gt;5</title>
<path fill="none" stroke="#000000" d="M260.8498,-341.8796C260.9186,-333.6838 260.9917,-324.9891 261.063,-316.5013"/>
<polygon fill="#000000" stroke="#000000" points="264.5645,-316.3272 261.1488,-306.2981 257.5648,-316.2683 264.5645,-316.3272"/>
</g>
<!-- 6 -->
<g id="node7" class="node">
<title>6</title>
<path fill="#ffffff" stroke="#000000" d="M178,-187C178,-187 69,-187 69,-187 63,-187 57,-181 57,-175 57,-175 57,-116 57,-116 57,-110 63,-104 69,-104 69,-104 178,-104 178,-104 184,-104 190,-110 190,-116 190,-116 190,-175 190,-175 190,-181 184,-187 178,-187"/>
<text text-anchor="start" x="65" y="-171.8" font-family="Helvetica,sans-Serif" font-size="14.00" fill="#000000">sepal.width ≤ 2.45</text>
<text text-anchor="start" x="94" y="-156.8" font-family="Helvetica,sans-Serif" font-size="14.00" fill="#000000">gini = 0.5</text>
<text text-anchor="start" x="84" y="-141.8" font-family="Helvetica,sans-Serif" font-size="14.00" fill="#000000">samples = 2</text>
<text text-anchor="start" x="74" y="-126.8" font-family="Helvetica,sans-Serif" font-size="14.00" fill="#000000">value = [0, 1, 1]</text>
<text text-anchor="start" x="94.5" y="-111.8" font-family="Helvetica,sans-Serif" font-size="14.00" fill="#000000">class = a</text>
</g>
<!-- 5&#45;&gt;6 -->
<g id="edge6" class="edge">
<title>5&#45;&gt;6</title>
<path fill="none" stroke="#000000" d="M213.2343,-222.8796C202.3722,-213.513 190.7544,-203.4948 179.6027,-193.8784"/>
<polygon fill="#000000" stroke="#000000" points="181.8306,-191.178 171.9717,-187.2981 177.2592,-196.4792 181.8306,-191.178"/>
</g>
<!-- 9 -->
<g id="node10" class="node">
<title>9</title>
<path fill="#8139e5" stroke="#000000" d="M311,-179.5C311,-179.5 220,-179.5 220,-179.5 214,-179.5 208,-173.5 208,-167.5 208,-167.5 208,-123.5 208,-123.5 208,-117.5 214,-111.5 220,-111.5 220,-111.5 311,-111.5 311,-111.5 317,-111.5 323,-117.5 323,-123.5 323,-123.5 323,-167.5 323,-167.5 323,-173.5 317,-179.5 311,-179.5"/>
<text text-anchor="start" x="236" y="-164.3" font-family="Helvetica,sans-Serif" font-size="14.00" fill="#000000">gini = 0.0</text>
<text text-anchor="start" x="226" y="-149.3" font-family="Helvetica,sans-Serif" font-size="14.00" fill="#000000">samples = 3</text>
<text text-anchor="start" x="216" y="-134.3" font-family="Helvetica,sans-Serif" font-size="14.00" fill="#000000">value = [0, 0, 3]</text>
<text text-anchor="start" x="238" y="-119.3" font-family="Helvetica,sans-Serif" font-size="14.00" fill="#000000">class = r</text>
</g>
<!-- 5&#45;&gt;9 -->
<g id="edge9" class="edge">
<title>5&#45;&gt;9</title>
<path fill="none" stroke="#000000" d="M262.899,-222.8796C263.2575,-212.2134 263.6445,-200.7021 264.0075,-189.9015"/>
<polygon fill="#000000" stroke="#000000" points="267.5085,-189.9269 264.3466,-179.8149 260.5125,-189.6917 267.5085,-189.9269"/>
</g>
<!-- 7 -->
<g id="node8" class="node">
<title>7</title>
<path fill="#8139e5" stroke="#000000" d="M103,-68C103,-68 12,-68 12,-68 6,-68 0,-62 0,-56 0,-56 0,-12 0,-12 0,-6 6,0 12,0 12,0 103,0 103,0 109,0 115,-6 115,-12 115,-12 115,-56 115,-56 115,-62 109,-68 103,-68"/>
<text text-anchor="start" x="28" y="-52.8" font-family="Helvetica,sans-Serif" font-size="14.00" fill="#000000">gini = 0.0</text>
<text text-anchor="start" x="18" y="-37.8" font-family="Helvetica,sans-Serif" font-size="14.00" fill="#000000">samples = 1</text>
<text text-anchor="start" x="8" y="-22.8" font-family="Helvetica,sans-Serif" font-size="14.00" fill="#000000">value = [0, 0, 1]</text>
<text text-anchor="start" x="30" y="-7.8" font-family="Helvetica,sans-Serif" font-size="14.00" fill="#000000">class = r</text>
</g>
<!-- 6&#45;&gt;7 -->
<g id="edge7" class="edge">
<title>6&#45;&gt;7</title>
<path fill="none" stroke="#000000" d="M98.924,-103.9815C93.7014,-95.1585 88.1771,-85.8258 82.9237,-76.9506"/>
<polygon fill="#000000" stroke="#000000" points="85.8874,-75.0863 77.7816,-68.2637 79.8636,-78.652 85.8874,-75.0863"/>
</g>
<!-- 8 -->
<g id="node9" class="node">
<title>8</title>
<path fill="#39e581" stroke="#000000" d="M236,-68C236,-68 145,-68 145,-68 139,-68 133,-62 133,-56 133,-56 133,-12 133,-12 133,-6 139,0 145,0 145,0 236,0 236,0 242,0 248,-6 248,-12 248,-12 248,-56 248,-56 248,-62 242,-68 236,-68"/>
<text text-anchor="start" x="161" y="-52.8" font-family="Helvetica,sans-Serif" font-size="14.00" fill="#000000">gini = 0.0</text>
<text text-anchor="start" x="151" y="-37.8" font-family="Helvetica,sans-Serif" font-size="14.00" fill="#000000">samples = 1</text>
<text text-anchor="start" x="141" y="-22.8" font-family="Helvetica,sans-Serif" font-size="14.00" fill="#000000">value = [0, 1, 0]</text>
<text text-anchor="start" x="161.5" y="-7.8" font-family="Helvetica,sans-Serif" font-size="14.00" fill="#000000">class = a</text>
</g>
<!-- 6&#45;&gt;8 -->
<g id="edge8" class="edge">
<title>6&#45;&gt;8</title>
<path fill="none" stroke="#000000" d="M148.4483,-103.9815C153.7501,-95.1585 159.3581,-85.8258 164.6911,-76.9506"/>
<polygon fill="#000000" stroke="#000000" points="167.7605,-78.638 169.9111,-68.2637 161.7604,-75.0325 167.7605,-78.638"/>
</g>
<!-- 11 -->
<g id="node12" class="node">
<title>11</title>
<path fill="#ab7bee" stroke="#000000" d="M463,-306C463,-306 362,-306 362,-306 356,-306 350,-300 350,-294 350,-294 350,-235 350,-235 350,-229 356,-223 362,-223 362,-223 463,-223 463,-223 469,-223 475,-229 475,-235 475,-235 475,-294 475,-294 475,-300 469,-306 463,-306"/>
<text text-anchor="start" x="358" y="-290.8" font-family="Helvetica,sans-Serif" font-size="14.00" fill="#000000">sepal.width ≤ 3.1</text>
<text text-anchor="start" x="374.5" y="-275.8" font-family="Helvetica,sans-Serif" font-size="14.00" fill="#000000">gini = 0.375</text>
<text text-anchor="start" x="373" y="-260.8" font-family="Helvetica,sans-Serif" font-size="14.00" fill="#000000">samples = 4</text>
<text text-anchor="start" x="363" y="-245.8" font-family="Helvetica,sans-Serif" font-size="14.00" fill="#000000">value = [0, 1, 3]</text>
<text text-anchor="start" x="385" y="-230.8" font-family="Helvetica,sans-Serif" font-size="14.00" fill="#000000">class = r</text>
</g>
<!-- 10&#45;&gt;11 -->
<g id="edge11" class="edge">
<title>10&#45;&gt;11</title>
<path fill="none" stroke="#000000" d="M413.1502,-341.8796C413.0814,-333.6838 413.0083,-324.9891 412.937,-316.5013"/>
<polygon fill="#000000" stroke="#000000" points="416.4352,-316.2683 412.8512,-306.2981 409.4355,-316.3272 416.4352,-316.2683"/>
</g>
<!-- 14 -->
<g id="node15" class="node">
<title>14</title>
<path fill="#8139e5" stroke="#000000" d="M604,-298.5C604,-298.5 505,-298.5 505,-298.5 499,-298.5 493,-292.5 493,-286.5 493,-286.5 493,-242.5 493,-242.5 493,-236.5 499,-230.5 505,-230.5 505,-230.5 604,-230.5 604,-230.5 610,-230.5 616,-236.5 616,-242.5 616,-242.5 616,-286.5 616,-286.5 616,-292.5 610,-298.5 604,-298.5"/>
<text text-anchor="start" x="525" y="-283.3" font-family="Helvetica,sans-Serif" font-size="14.00" fill="#000000">gini = 0.0</text>
<text text-anchor="start" x="510.5" y="-268.3" font-family="Helvetica,sans-Serif" font-size="14.00" fill="#000000">samples = 37</text>
<text text-anchor="start" x="501" y="-253.3" font-family="Helvetica,sans-Serif" font-size="14.00" fill="#000000">value = [0, 0, 37]</text>
<text text-anchor="start" x="527" y="-238.3" font-family="Helvetica,sans-Serif" font-size="14.00" fill="#000000">class = r</text>
</g>
<!-- 10&#45;&gt;14 -->
<g id="edge14" class="edge">
<title>10&#45;&gt;14</title>
<path fill="none" stroke="#000000" d="M462.815,-341.8796C476.756,-330.1138 491.9154,-317.3197 505.8188,-305.5855"/>
<polygon fill="#000000" stroke="#000000" points="508.4564,-307.9394 513.8411,-298.8149 503.9416,-302.5899 508.4564,-307.9394"/>
</g>
<!-- 12 -->
<g id="node13" class="node">
<title>12</title>
<path fill="#8139e5" stroke="#000000" d="M453,-179.5C453,-179.5 362,-179.5 362,-179.5 356,-179.5 350,-173.5 350,-167.5 350,-167.5 350,-123.5 350,-123.5 350,-117.5 356,-111.5 362,-111.5 362,-111.5 453,-111.5 453,-111.5 459,-111.5 465,-117.5 465,-123.5 465,-123.5 465,-167.5 465,-167.5 465,-173.5 459,-179.5 453,-179.5"/>
<text text-anchor="start" x="378" y="-164.3" font-family="Helvetica,sans-Serif" font-size="14.00" fill="#000000">gini = 0.0</text>
<text text-anchor="start" x="368" y="-149.3" font-family="Helvetica,sans-Serif" font-size="14.00" fill="#000000">samples = 3</text>
<text text-anchor="start" x="358" y="-134.3" font-family="Helvetica,sans-Serif" font-size="14.00" fill="#000000">value = [0, 0, 3]</text>
<text text-anchor="start" x="380" y="-119.3" font-family="Helvetica,sans-Serif" font-size="14.00" fill="#000000">class = r</text>
</g>
<!-- 11&#45;&gt;12 -->
<g id="edge12" class="edge">
<title>11&#45;&gt;12</title>
<path fill="none" stroke="#000000" d="M410.7512,-222.8796C410.3031,-212.2134 409.8194,-200.7021 409.3656,-189.9015"/>
<polygon fill="#000000" stroke="#000000" points="412.8586,-189.6592 408.9418,-179.8149 405.8648,-189.9531 412.8586,-189.6592"/>
</g>
<!-- 13 -->
<g id="node14" class="node">
<title>13</title>
<path fill="#39e581" stroke="#000000" d="M586,-179.5C586,-179.5 495,-179.5 495,-179.5 489,-179.5 483,-173.5 483,-167.5 483,-167.5 483,-123.5 483,-123.5 483,-117.5 489,-111.5 495,-111.5 495,-111.5 586,-111.5 586,-111.5 592,-111.5 598,-117.5 598,-123.5 598,-123.5 598,-167.5 598,-167.5 598,-173.5 592,-179.5 586,-179.5"/>
<text text-anchor="start" x="511" y="-164.3" font-family="Helvetica,sans-Serif" font-size="14.00" fill="#000000">gini = 0.0</text>
<text text-anchor="start" x="501" y="-149.3" font-family="Helvetica,sans-Serif" font-size="14.00" fill="#000000">samples = 1</text>
<text text-anchor="start" x="491" y="-134.3" font-family="Helvetica,sans-Serif" font-size="14.00" fill="#000000">value = [0, 1, 0]</text>
<text text-anchor="start" x="511.5" y="-119.3" font-family="Helvetica,sans-Serif" font-size="14.00" fill="#000000">class = a</text>
</g>
<!-- 11&#45;&gt;13 -->
<g id="edge13" class="edge">
<title>11&#45;&gt;13</title>
<path fill="none" stroke="#000000" d="M457.2682,-222.8796C469.8056,-211.2237 483.4284,-198.5587 495.953,-186.9148"/>
<polygon fill="#000000" stroke="#000000" points="498.6491,-189.1872 503.5898,-179.8149 493.8828,-184.0605 498.6491,-189.1872"/>
</g>
</g>
</svg>
